<svg xmlns="http://www.w3.org/2000/svg" width="16.806" height="22.063" viewBox="25.597 13.468 16.806 22.063"><g data-name="location-pin"><path d="M29.726 20.494c-.15.45-.25.921-.25 1.42 0 .5.1.972.25 1.421l1.42-1.42-1.42-1.421Z" fill="#ff7a00" fill-rule="evenodd" data-name="Caminho 6"/><path d="M38.07 19.975c-.728-1.523-2.272-2.585-4.07-2.585-.561 0-1.094.115-1.59.303l2.282 2.282h3.379Z" fill="#ff7a00" fill-rule="evenodd" data-name="Caminho 7"/><path d="m33.968 21.079-2.726-2.726c-.342.266-.65.573-.903.925l2.179 2.18a.646.646 0 0 1 0 .913l-2.18 2.18c.255.352.562.658.904.924l2.726-2.725a.646.646 0 0 1 .457-.19h4.034c.031-.212.066-.424.066-.646 0-.22-.035-.433-.066-.646h-4.034a.646.646 0 0 1-.457-.19Z" fill="#ff7a00" fill-rule="evenodd" data-name="Caminho 8"/><path d="M34 13.468c-4.633 0-8.403 3.813-8.403 8.446a8.389 8.389 0 0 0 6.116 8.078l1.75 2.623a.647.647 0 0 0 1.075 0l1.749-2.623a8.389 8.389 0 0 0 6.116-8.078c0-4.633-3.77-8.446-8.403-8.446Zm0 14.264c-2.845 0-5.817-2.316-5.817-5.818 0-3.18 2.7-5.817 5.817-5.817 3.318 0 5.817 2.792 5.817 5.817 0 3.021-2.492 5.818-5.817 5.818Z" fill="#ff7a00" fill-rule="evenodd" data-name="Caminho 9"/><path d="M32.41 26.136a4.478 4.478 0 0 0 1.59.303c1.798 0 3.342-1.062 4.07-2.585h-3.378l-2.282 2.282Z" fill="#ff7a00" fill-rule="evenodd" data-name="Caminho 10"/><path d="m41.077 34.68-1.293-3.92a.646.646 0 0 0-.613-.443h-.392a9.56 9.56 0 0 1-1.67.773l-1.496 2.242c-.36.541-.963.864-1.613.864s-1.253-.323-1.613-.864L30.89 31.09c-.59-.2-1.14-.47-1.67-.773h-.392a.646.646 0 0 0-.613.442l-1.293 3.922a.646.646 0 0 0 .613.85h12.928a.647.647 0 0 0 .613-.85Z" fill="#ff7a00" fill-rule="evenodd" data-name="Caminho 11"/></g></svg>