<svg xmlns="http://www.w3.org/2000/svg" width="10" height="13.333" viewBox="30 18 10 13.333"><path d="M39.722 23h-.833v-1.111A3.893 3.893 0 0 0 35 18a3.893 3.893 0 0 0-3.889 3.889V23h-.833a.278.278 0 0 0-.278.278v6.944c0 .613.498 1.111 1.111 1.111h7.778c.613 0 1.111-.498 1.111-1.11v-6.945a.278.278 0 0 0-.278-.278Zm-3.89 5.803a.279.279 0 0 1-.276.308h-1.112a.278.278 0 0 1-.276-.308l.176-1.576a1.099 1.099 0 0 1-.455-.894 1.112 1.112 0 0 1 2.222 0c0 .36-.17.687-.454.894l.175 1.576ZM37.222 23h-4.444v-1.111c0-1.225.997-2.222 2.222-2.222s2.222.997 2.222 2.222V23Z" fill="#ff7a00" fill-rule="evenodd" data-name="Caminho 3"/></svg>