<svg xmlns="http://www.w3.org/2000/svg" width="12" height="14.306" viewBox="30 18 12 14.306"><path d="m42 29.294-.048.058c-1.587 1.904-3.702 2.954-5.952 2.954s-4.365-1.05-5.952-2.954L30 29.294l.011-.074c.307-2 1.351-3.606 2.942-4.523l.113-.066.09.095A3.895 3.895 0 0 0 36 25.947a3.897 3.897 0 0 0 2.844-1.221l.09-.095.113.066c1.59.917 2.635 2.524 2.941 4.523l.012.074Zm-6-4.15a3.576 3.576 0 0 0 3.572-3.572A3.576 3.576 0 0 0 36 18a3.576 3.576 0 0 0-3.572 3.572A3.577 3.577 0 0 0 36 25.144Z" fill="#ff7a00" fill-rule="evenodd" data-name="Caminho 2"/></svg>