<?xml version="1.0" encoding="UTF-8"?>
<svg id="Camada_2" data-name="Camada 2" xmlns="http://www.w3.org/2000/svg" xmlns:xlink="http://www.w3.org/1999/xlink" viewBox="0 0 100 27.21">
  <defs>
    <style>
      .cls-1 {
        fill: #c1c1c1;
      }

      .cls-1, .cls-2, .cls-3, .cls-4, .cls-5 {
        stroke-width: 0px;
      }

      .cls-2 {
        fill: #f9b203;
      }

      .cls-3 {
        fill: #fb7411;
      }

      .cls-4 {
        fill: url(#Gradiente_sem_nome_6);
      }

      .cls-5 {
        fill: url(#Gradiente_sem_nome_3);
      }
    </style>
    <linearGradient id="Gradiente_sem_nome_6" data-name="Gradiente sem nome 6" x1="16.61" y1="13.61" x2="44.35" y2="13.61" gradientUnits="userSpaceOnUse">
      <stop offset="0" stop-color="#f59d1b"/>
      <stop offset="1" stop-color="#fc461b"/>
    </linearGradient>
    <linearGradient id="Gradiente_sem_nome_3" data-name="Gradiente sem nome 3" x1="40.22" y1="16.38" x2="80.88" y2="16.38" gradientUnits="userSpaceOnUse">
      <stop offset="0" stop-color="#fb9511"/>
      <stop offset="1" stop-color="#fd341f"/>
    </linearGradient>
  </defs>
  <g id="Capa_1" data-name="Capa 1">
    <g id="Objeto_Inteligente_de_Vetor" data-name="Objeto Inteligente de Vetor">
      <g>
        <path class="cls-1" d="M77.7,12.42h-1.11v-.66h2.9v.66h-1.11v3.03h-.69v-3.03Z"/>
        <path class="cls-1" d="M79.77,11.76h2.48v.63h-1.79v.9h1.69v.63h-1.69v.9h1.79v.63h-2.48v-3.69Z"/>
        <path class="cls-1" d="M82.78,11.76h.69v3.03h1.74v.66h-2.43v-3.69Z"/>
        <path class="cls-1" d="M85.48,11.76h2.48v.63h-1.79v.9h1.69v.63h-1.69v.9h1.79v.63h-2.48v-3.69Z"/>
        <path class="cls-1" d="M91.69,14.13c-.08.42-.5,1.37-1.66,1.37-1,0-1.79-.79-1.79-1.9s.8-1.9,1.79-1.9c1.09,0,1.55.84,1.66,1.34h-.71c-.11-.29-.39-.69-.95-.69-.63,0-1.11.48-1.11,1.24s.47,1.24,1.11,1.24c.56,0,.84-.4.95-.71h.71Z"/>
        <path class="cls-1" d="M95.49,13.61c0,1.11-.8,1.9-1.79,1.9s-1.79-.79-1.79-1.9.8-1.9,1.79-1.9,1.79.79,1.79,1.9ZM94.81,13.61c0-.76-.47-1.24-1.11-1.24s-1.11.48-1.11,1.24.47,1.24,1.11,1.24,1.11-.48,1.11-1.24Z"/>
        <path class="cls-1" d="M95.94,11.76h1.11l.87,2.58h.11l.87-2.58h1.11v3.69h-.69v-2.56h-.11l-.87,2.56h-.74l-.87-2.56h-.11v2.56h-.69v-3.69Z"/>
      </g>
      <g>
        <g>
          <g>
            <path class="cls-3" d="M12.65,3.74c-5.55.59-9.58,5.49-9,10.94s5.64,9.37,10.96,8.81c0,0,1.25-.18,1.12-1.45s-1.45-1.17-1.45-1.17c-3.76.4-7.52-2.47-7.94-6.47s2.53-7.59,6.6-8.02c1.96-.21,3.44.34,4.43.89.42.23,1.46.3,1.85-.65s-.4-1.6-.64-1.72-2.59-1.51-5.92-1.15Z"/>
            <path class="cls-3" d="M27.73,13.82C27.85,6.3,21.73.12,14.07,0S.11,5.88,0,13.4s6,13.7,13.66,13.81c.68,0,1.73-.02,2.63-.2.65-.13,1.08-.91.97-1.48-.2-1.39-1.54-1.12-1.54-1.12-.31.05-.77.17-2.02.15-6.17-.09-11.09-5.07-11-11.12.09-6.05,5.16-10.88,11.33-10.79,6.17.09,11.09,5.07,11,11.12-.06,3.79-1.93,6.73-4.49,8.62,0,0-1.04.82-.39,1.85s1.9.35,1.9.35c2.63-1.9,5.61-5.46,5.69-10.78Z"/>
            <path class="cls-3" d="M13.76,7.35c-3.33,0-6.42,2.6-6.42,6.37s3.56,6.22,6.16,6.13c0,0,1.28,0,1.32-1.3s-1.32-1.3-1.32-1.3c-1.53,0-3.3-1.54-3.3-3.69,0-2.01,1.65-3.62,3.63-3.62s3.63,1.62,3.63,3.62v4.98s.08,1.3,1.31,1.3,1.32-1.3,1.32-1.3v-4.86c0-3.82-3-6.35-6.32-6.35Z"/>
          </g>
          <g>
            <path class="cls-4" d="M12.65,3.74c-5.55.59-9.58,5.49-9,10.94s5.64,9.37,10.96,8.81c0,0,1.25-.18,1.12-1.45s-1.45-1.17-1.45-1.17c-3.76.4-7.52-2.47-7.94-6.47s2.53-7.59,6.6-8.02c1.96-.21,3.44.34,4.43.89.42.23,1.46.3,1.85-.65s-.4-1.6-.64-1.72-2.59-1.51-5.92-1.15Z"/>
            <path class="cls-4" d="M27.73,13.82C27.85,6.3,21.73.12,14.07,0S.11,5.88,0,13.4s6,13.7,13.66,13.81c.68,0,1.73-.02,2.63-.2.65-.13,1.08-.91.97-1.48-.2-1.39-1.54-1.12-1.54-1.12-.31.05-.77.17-2.02.15-6.17-.09-11.09-5.07-11-11.12.09-6.05,5.16-10.88,11.33-10.79,6.17.09,11.09,5.07,11,11.12-.06,3.79-1.93,6.73-4.49,8.62,0,0-1.04.82-.39,1.85s1.9.35,1.9.35c2.63-1.9,5.61-5.46,5.69-10.78Z"/>
            <path class="cls-4" d="M13.76,7.35c-3.33,0-6.42,2.6-6.42,6.37s3.56,6.22,6.16,6.13c0,0,1.28,0,1.32-1.3s-1.32-1.3-1.32-1.3c-1.53,0-3.3-1.54-3.3-3.69,0-2.01,1.65-3.62,3.63-3.62s3.63,1.62,3.63,3.62v4.98s.08,1.3,1.31,1.3,1.32-1.3,1.32-1.3v-4.86c0-3.82-3-6.35-6.32-6.35Z"/>
          </g>
        </g>
        <g>
          <g>
            <path class="cls-2" d="M72.99,13.78c0-3.61-3.03-6.25-6.35-6.25s-6.39,2.6-6.39,6.25,3.08,6.25,6.39,6.25c1.53,0,2.57-.54,3.1-.8,0,0,1.06-.71.48-1.78s-1.83-.49-1.83-.49c-.32.21-1,.47-1.76.47-1.28,0-2.82-.64-3.5-2.59,0,0,9.18,0,9.76,0,.1-.52.09-1.06.09-1.06ZM63.25,12.45c.65-1.66,2.18-2.32,3.4-2.32s2.7.7,3.35,2.33h-6.75Z"/>
            <path class="cls-2" d="M38.75,7.53c-3.33,0-6.42,2.6-6.42,6.37s3.56,6.22,6.16,6.13c0,0,1.28,0,1.32-1.3.04-1.3-1.32-1.3-1.32-1.3-1.53,0-3.3-1.54-3.3-3.69,0-2.01,1.65-3.62,3.63-3.62s3.63,1.62,3.63,3.62v4.98s.08,1.3,1.31,1.3,1.32-1.3,1.32-1.3v-4.86c0-3.82-3-6.35-6.32-6.35Z"/>
            <path class="cls-2" d="M52.69,7.53c-3.17,0-6.39,2.42-6.39,6.25s3.25,6.25,6.37,6.25c2.09,0,3.63-.75,3.63-1.95,0,.48,0,.79,0,1.13,0,2.12-2.1,3.42-3.54,3.42-2.19,0-3.03-1.46-3.25-1.89,0,0-.66-1.09-1.79-.58-1.13.51-.65,1.76-.65,1.76.89,1.69,2.93,3.31,5.62,3.31s6.37-1.9,6.37-6.44v-4.9c0-3.85-3.18-6.35-6.35-6.35ZM52.66,17.43c-2,0-3.63-1.68-3.63-3.68s1.62-3.62,3.63-3.62,3.63,1.62,3.63,3.62-1.62,3.68-3.63,3.68Z"/>
          </g>
          <g>
            <path class="cls-5" d="M72.99,13.78c0-3.61-3.03-6.25-6.35-6.25s-6.39,2.6-6.39,6.25,3.08,6.25,6.39,6.25c1.53,0,2.57-.54,3.1-.8,0,0,1.06-.71.48-1.78s-1.83-.49-1.83-.49c-.32.21-1,.47-1.76.47-1.28,0-2.82-.64-3.5-2.59,0,0,9.18,0,9.76,0,.1-.52.09-1.06.09-1.06ZM63.25,12.45c.65-1.66,2.18-2.32,3.4-2.32s2.7.7,3.35,2.33h-6.75Z"/>
            <path class="cls-5" d="M38.75,7.53c-3.33,0-6.42,2.6-6.42,6.37s3.56,6.22,6.16,6.13c0,0,1.28,0,1.32-1.3.04-1.3-1.32-1.3-1.32-1.3-1.53,0-3.3-1.54-3.3-3.69,0-2.01,1.65-3.62,3.63-3.62s3.63,1.62,3.63,3.62v4.98s.08,1.3,1.31,1.3,1.32-1.3,1.32-1.3v-4.86c0-3.82-3-6.35-6.32-6.35Z"/>
            <path class="cls-5" d="M52.69,7.53c-3.17,0-6.39,2.42-6.39,6.25s3.25,6.25,6.37,6.25c2.09,0,3.63-.75,3.63-1.95,0,.48,0,.79,0,1.13,0,2.12-2.1,3.42-3.54,3.42-2.19,0-3.03-1.46-3.25-1.89,0,0-.66-1.09-1.79-.58-1.13.51-.65,1.76-.65,1.76.89,1.69,2.93,3.31,5.62,3.31s6.37-1.9,6.37-6.44v-4.9c0-3.85-3.18-6.35-6.35-6.35ZM52.66,17.43c-2,0-3.63-1.68-3.63-3.68s1.62-3.62,3.63-3.62,3.63,1.62,3.63,3.62-1.62,3.68-3.63,3.68Z"/>
          </g>
        </g>
      </g>
    </g>
  </g>
</svg>