<?xml version="1.0" encoding="utf-8"?>
<!-- Generator: Adobe Illustrator 28.0.0, SVG Export Plug-In . SVG Version: 6.00 Build 0)  -->
<svg version="1.1" id="Artwork" xmlns="http://www.w3.org/2000/svg" xmlns:xlink="http://www.w3.org/1999/xlink" x="0px" y="0px"
	 viewBox="0 0 887.76 442.61" style="enable-background:new 0 0 887.76 442.61;" xml:space="preserve">
<style type="text/css">
	.st0{fill:#C1C1C1;}
	.st1{fill:#FB7411;}
	.st2{fill:url(#SVGID_1_);}
	.st3{fill:url(#SVGID_00000181776890428926382130000014421558278068704666_);}
	.st4{fill:url(#SVGID_00000057851137825656845130000013761641825505928340_);}
	.st5{fill:#F9B203;}
	.st6{fill:url(#SVGID_00000119824647259982614940000006056887689834253246_);}
	.st7{fill:url(#SVGID_00000112616775736792378750000012291968317964295845_);}
	.st8{fill:url(#SVGID_00000090992162702897526750000000335631256946573218_);}
</style>
<g>
	<path class="st0" d="M584.07,198.07h-6.75v-4.02h17.68v4.02h-6.75v18.48h-4.18V198.07z"/>
	<path class="st0" d="M596.66,194.05h15.1v3.86h-10.93v5.46h10.28v3.86h-10.28v5.46h10.93v3.86h-15.1V194.05z"/>
	<path class="st0" d="M615,194.05h4.18v18.48h10.61v4.02H615V194.05z"/>
	<path class="st0" d="M631.43,194.05h15.1v3.86h-10.93v5.46h10.28v3.86h-10.28v5.46h10.93v3.86h-15.1V194.05z"/>
	<path class="st0" d="M669.31,208.51c-0.51,2.57-3.02,8.36-10.12,8.36c-6.07,0-10.93-4.79-10.93-11.57
		c0-6.78,4.85-11.57,10.93-11.57c6.62,0,9.45,5.14,10.12,8.2h-4.34c-0.67-1.77-2.38-4.18-5.79-4.18c-3.86,0-6.75,2.92-6.75,7.55
		c0,4.63,2.89,7.55,6.75,7.55c3.41,0,5.11-2.41,5.79-4.34H669.31z"/>
	<path class="st0" d="M692.47,205.3c0,6.78-4.85,11.57-10.93,11.57c-6.07,0-10.93-4.79-10.93-11.57c0-6.78,4.85-11.57,10.93-11.57
		C687.62,193.73,692.47,198.52,692.47,205.3z M688.29,205.3c0-4.63-2.89-7.55-6.75-7.55c-3.86,0-6.75,2.92-6.75,7.55
		c0,4.63,2.89,7.55,6.75,7.55C685.4,212.85,688.29,209.93,688.29,205.3z"/>
	<path class="st0" d="M695.19,194.05h6.75l5.3,15.75h0.64l5.3-15.75h6.75v22.5h-4.18v-15.59h-0.64l-5.3,15.59h-4.5l-5.3-15.59h-0.64
		v15.59h-4.18V194.05z"/>
</g>
<g>
	<g>
		<g>
			<g>
				<path class="st1" d="M187.64,145.17c-33.83,3.61-58.39,33.44-54.85,66.64c3.54,33.19,34.35,57.12,66.76,53.66
					c0,0,7.62-1.08,6.8-8.84c-0.83-7.76-8.83-7.14-8.83-7.14c-22.93,2.45-45.82-15.06-48.42-39.41
					c-2.6-24.35,15.42-46.24,40.24-48.89c11.95-1.27,20.94,2.08,26.99,5.43c2.55,1.41,8.89,1.86,11.25-3.96
					c2.36-5.82-2.46-9.76-3.87-10.48S207.97,143,187.64,145.17z"/>
			</g>
			<g>
				<g>
					<path class="st1" d="M279.56,206.58c0.69-45.79-36.58-83.48-83.25-84.18c-46.67-0.7-85.06,35.84-85.75,81.63
						c-0.69,45.79,36.58,83.48,83.25,84.18c4.13-0.03,10.57-0.11,16.02-1.23c3.98-0.82,6.56-5.57,5.93-8.99
						c-1.21-8.48-9.38-6.84-9.38-6.84c-1.87,0.28-4.67,1.02-12.32,0.9c-37.57-0.57-67.58-30.91-67.02-67.77s31.47-66.29,69.04-65.72
						c37.57,0.57,67.58,30.91,67.03,67.77c-0.35,23.11-11.79,40.98-27.39,52.53c0,0-6.31,5-2.38,11.29s11.58,2.14,11.58,2.14
						C260.92,260.75,279.07,239.01,279.56,206.58z"/>
				</g>
			</g>
			<g>
				<g>
					<path class="st1" d="M194.41,167.21c-20.27,0-39.11,15.82-39.11,38.82c0,22.85,21.67,37.91,37.55,37.36c0,0,7.8,0,8.02-7.91
						s-8.02-7.91-8.02-7.91c-9.33,0-20.12-9.36-20.12-22.46c0-12.22,10.05-22.07,22.09-22.07s22.09,9.88,22.09,22.07l0.06,30.38
						c0,0,0.4,7.91,7.95,7.91c7.55,0,8.02-7.91,8.02-7.91v-29.59C232.94,182.59,214.68,167.21,194.41,167.21z"/>
				</g>
			</g>
		</g>
		<g>
			<g>
				
					<linearGradient id="SVGID_1_" gradientUnits="userSpaceOnUse" x1="156.7399" y1="-171.6445" x2="325.7587" y2="-171.6445" gradientTransform="matrix(1 0 0 1 55.0455 376.9446)">
					<stop  offset="0" style="stop-color:#F59D1B"/>
					<stop  offset="1" style="stop-color:#FC461B"/>
				</linearGradient>
				<path class="st2" d="M187.64,145.17c-33.83,3.61-58.39,33.44-54.85,66.64c3.54,33.19,34.35,57.12,66.76,53.66
					c0,0,7.62-1.08,6.8-8.84c-0.83-7.76-8.83-7.14-8.83-7.14c-22.93,2.45-45.82-15.06-48.42-39.41
					c-2.6-24.35,15.42-46.24,40.24-48.89c11.95-1.27,20.94,2.08,26.99,5.43c2.55,1.41,8.89,1.86,11.25-3.96
					c2.36-5.82-2.46-9.76-3.87-10.48S207.97,143,187.64,145.17z"/>
			</g>
			<g>
				<g>
					
						<linearGradient id="SVGID_00000182502261050148580590000000273094766640338323_" gradientUnits="userSpaceOnUse" x1="156.7399" y1="-171.6445" x2="325.7587" y2="-171.6445" gradientTransform="matrix(1 0 0 1 55.0455 376.9446)">
						<stop  offset="0" style="stop-color:#F59D1B"/>
						<stop  offset="1" style="stop-color:#FC461B"/>
					</linearGradient>
					<path style="fill:url(#SVGID_00000182502261050148580590000000273094766640338323_);" d="M279.56,206.58
						c0.69-45.79-36.58-83.48-83.25-84.18c-46.67-0.7-85.06,35.84-85.75,81.63c-0.69,45.79,36.58,83.48,83.25,84.18
						c4.13-0.03,10.57-0.11,16.02-1.23c3.98-0.82,6.56-5.57,5.93-8.99c-1.21-8.48-9.38-6.84-9.38-6.84
						c-1.87,0.28-4.67,1.02-12.32,0.9c-37.57-0.57-67.58-30.91-67.02-67.77s31.47-66.29,69.04-65.72
						c37.57,0.57,67.58,30.91,67.03,67.77c-0.35,23.11-11.79,40.98-27.39,52.53c0,0-6.31,5-2.38,11.29s11.58,2.14,11.58,2.14
						C260.92,260.75,279.07,239.01,279.56,206.58z"/>
				</g>
			</g>
			<g>
				<g>
					
						<linearGradient id="SVGID_00000073715313304775068850000015580641966665751979_" gradientUnits="userSpaceOnUse" x1="156.7399" y1="-171.6445" x2="325.7587" y2="-171.6445" gradientTransform="matrix(1 0 0 1 55.0455 376.9446)">
						<stop  offset="0" style="stop-color:#F59D1B"/>
						<stop  offset="1" style="stop-color:#FC461B"/>
					</linearGradient>
					<path style="fill:url(#SVGID_00000073715313304775068850000015580641966665751979_);" d="M194.41,167.21
						c-20.27,0-39.11,15.82-39.11,38.82c0,22.85,21.67,37.91,37.55,37.36c0,0,7.8,0,8.02-7.91s-8.02-7.91-8.02-7.91
						c-9.33,0-20.12-9.36-20.12-22.46c0-12.22,10.05-22.07,22.09-22.07s22.09,9.88,22.09,22.07l0.06,30.38c0,0,0.4,7.91,7.95,7.91
						c7.55,0,8.02-7.91,8.02-7.91v-29.59C232.94,182.59,214.68,167.21,194.41,167.21z"/>
				</g>
			</g>
		</g>
	</g>
	<g>
		<g>
			<path class="st5" d="M555.36,206.36c0-21.97-18.46-38.09-38.67-38.09c-20.22,0-38.97,15.83-38.97,38.09
				c0,22.26,18.75,38.09,38.97,38.09c9.3,0,15.68-3.3,18.91-4.86c0,0,6.47-4.31,2.92-10.86c-3.55-6.54-11.13-2.98-11.13-2.98
				c-1.92,1.26-6.11,2.88-10.7,2.88c-7.77,0-17.21-3.9-21.33-15.8c0,0,55.93-0.02,59.46-0.02
				C555.39,209.63,555.36,206.36,555.36,206.36z M495.96,198.26c3.97-10.09,13.26-14.16,20.72-14.16c7.46,0,16.44,4.28,20.42,14.17
				L495.96,198.26z"/>
			<path class="st5" d="M346.69,168.27c-20.27,0-39.11,15.82-39.11,38.82c0,22.85,21.67,37.91,37.55,37.36c0,0,7.8,0,8.02-7.91
				c0.22-7.91-8.02-7.91-8.02-7.91c-9.33,0-20.12-9.36-20.12-22.47c0-12.22,10.05-22.07,22.09-22.07c12.05,0,22.09,9.88,22.09,22.07
				l0.06,30.38c0,0,0.4,7.91,7.95,7.91s8.02-7.91,8.02-7.91v-29.59C385.22,183.65,366.96,168.27,346.69,168.27z"/>
			<path class="st5" d="M431.61,168.27c-19.29,0-38.97,14.74-38.97,38.09s19.82,38.09,38.82,38.09c12.74,0,22.09-4.59,22.09-11.87
				c0,2.94-0.06,4.8-0.06,6.87c0,12.93-12.82,20.82-21.6,20.82c-13.34,0-18.46-8.91-19.83-11.51c0,0-4.02-6.62-10.89-3.52
				c-6.86,3.1-3.98,10.7-3.98,10.7c5.4,10.3,17.88,20.15,34.26,20.15c16.38,0,38.82-11.57,38.82-39.26v-29.88
				C470.29,183.51,450.9,168.27,431.61,168.27z M431.47,228.63c-12.2,0-22.09-10.27-22.09-22.46c0-12.19,9.89-22.07,22.09-22.07
				s22.09,9.88,22.09,22.07C453.56,218.36,443.67,228.63,431.47,228.63z"/>
		</g>
		<g>
			
				<linearGradient id="SVGID_00000150795846844380031080000008903146021285803454_" gradientUnits="userSpaceOnUse" x1="300.5923" y1="-154.7622" x2="548.3719" y2="-154.7622" gradientTransform="matrix(1 0 0 1 55.0455 376.9446)">
				<stop  offset="0" style="stop-color:#FB9511"/>
				<stop  offset="1" style="stop-color:#FD341F"/>
			</linearGradient>
			<path style="fill:url(#SVGID_00000150795846844380031080000008903146021285803454_);" d="M555.36,206.36
				c0-21.97-18.46-38.09-38.67-38.09c-20.22,0-38.97,15.83-38.97,38.09c0,22.26,18.75,38.09,38.97,38.09c9.3,0,15.68-3.3,18.91-4.86
				c0,0,6.47-4.31,2.92-10.86c-3.55-6.54-11.13-2.98-11.13-2.98c-1.92,1.26-6.11,2.88-10.7,2.88c-7.77,0-17.21-3.9-21.33-15.8
				c0,0,55.93-0.02,59.46-0.02C555.39,209.63,555.36,206.36,555.36,206.36z M495.96,198.26c3.97-10.09,13.26-14.16,20.72-14.16
				c7.46,0,16.44,4.28,20.42,14.17L495.96,198.26z"/>
			
				<linearGradient id="SVGID_00000023986227161162611040000016817567451584736169_" gradientUnits="userSpaceOnUse" x1="300.5923" y1="-154.7622" x2="548.3719" y2="-154.7622" gradientTransform="matrix(1 0 0 1 55.0455 376.9446)">
				<stop  offset="0" style="stop-color:#FB9511"/>
				<stop  offset="1" style="stop-color:#FD341F"/>
			</linearGradient>
			<path style="fill:url(#SVGID_00000023986227161162611040000016817567451584736169_);" d="M346.69,168.27
				c-20.27,0-39.11,15.82-39.11,38.82c0,22.85,21.67,37.91,37.55,37.36c0,0,7.8,0,8.02-7.91c0.22-7.91-8.02-7.91-8.02-7.91
				c-9.33,0-20.12-9.36-20.12-22.47c0-12.22,10.05-22.07,22.09-22.07c12.05,0,22.09,9.88,22.09,22.07l0.06,30.38
				c0,0,0.4,7.91,7.95,7.91s8.02-7.91,8.02-7.91v-29.59C385.22,183.65,366.96,168.27,346.69,168.27z"/>
			
				<linearGradient id="SVGID_00000083788165310675784170000000077968644785194680_" gradientUnits="userSpaceOnUse" x1="300.5923" y1="-154.7622" x2="548.3719" y2="-154.7622" gradientTransform="matrix(1 0 0 1 55.0455 376.9446)">
				<stop  offset="0" style="stop-color:#FB9511"/>
				<stop  offset="1" style="stop-color:#FD341F"/>
			</linearGradient>
			<path style="fill:url(#SVGID_00000083788165310675784170000000077968644785194680_);" d="M431.61,168.27
				c-19.29,0-38.97,14.74-38.97,38.09s19.82,38.09,38.82,38.09c12.74,0,22.09-4.59,22.09-11.87c0,2.94-0.06,4.8-0.06,6.87
				c0,12.93-12.82,20.82-21.6,20.82c-13.34,0-18.46-8.91-19.83-11.51c0,0-4.02-6.62-10.89-3.52c-6.86,3.1-3.98,10.7-3.98,10.7
				c5.4,10.3,17.88,20.15,34.26,20.15c16.38,0,38.82-11.57,38.82-39.26v-29.88C470.29,183.51,450.9,168.27,431.61,168.27z
				 M431.47,228.63c-12.2,0-22.09-10.27-22.09-22.46c0-12.19,9.89-22.07,22.09-22.07s22.09,9.88,22.09,22.07
				C453.56,218.36,443.67,228.63,431.47,228.63z"/>
		</g>
	</g>
</g>
</svg>
