<svg xmlns="http://www.w3.org/2000/svg" width="193.442" height="51.676" viewBox="632.644 774.662 193.442 51.676"><g data-name="Grupo 2"><g data-name="Grupo 1" transform="translate(632.644 774.662)" clip-path="url(&quot;#a&quot;)"><path d="M24.555 12.088c3.724-.397 6.526.65 8.412 1.694.795.44 2.77.578 3.506-1.236.737-1.814-.765-3.041-1.206-3.265-.441-.223-4.91-2.858-11.244-2.182C13.48 8.223 5.827 17.52 6.93 27.865c1.104 10.344 10.704 17.8 20.806 16.722 0 0 2.376-.338 2.118-2.756-.258-2.418-2.75-2.226-2.75-2.226-7.147.763-14.279-4.693-15.088-12.282-.81-7.589 4.804-14.41 12.54-15.235" fill="#fff" fill-rule="evenodd" data-name="Caminho 1"/><path d="M26.726.003C12.182-.217.218 11.173.003 25.442c-.215 14.269 11.4 26.014 25.943 26.234 1.288-.011 3.293-.034 4.992-.385 1.242-.256 2.046-1.735 1.847-2.802-.377-2.642-2.922-2.13-2.922-2.13-.584.087-1.457.317-3.84.281-11.71-.176-21.061-9.633-20.888-21.12C5.308 14.03 14.94 4.861 26.65 5.037c11.709.177 21.06 9.633 20.887 21.121-.108 7.202-3.673 12.771-8.535 16.372 0 0-1.966 1.557-.743 3.517 1.224 1.96 3.608.667 3.608.667 4.994-3.598 10.65-10.373 10.802-20.479C52.884 11.968 41.269.223 26.726.003" fill="#fff" fill-rule="evenodd" data-name="Caminho 2"/><path d="M38.139 26.02c0-7.259-5.69-12.052-12.007-12.052-6.317 0-12.19 4.93-12.19 12.097 0 7.123 6.754 11.813 11.702 11.642 0 0 2.43 0 2.5-2.465.068-2.466-2.5-2.466-2.5-2.466-2.906 0-6.27-2.916-6.27-7 0-3.809 3.132-6.878 6.886-6.878s6.885 3.08 6.885 6.878l.018 9.466s.125 2.464 2.477 2.464 2.499-2.464 2.499-2.464V26.02Z" fill="#fff" fill-rule="evenodd" data-name="Caminho 3"/><path d="M138.617 26.168c0-6.848-5.752-11.87-12.053-11.87-6.3 0-12.143 4.934-12.143 11.87 0 6.936 5.843 11.87 12.143 11.87 2.9 0 4.886-1.028 5.893-1.514 0 0 2.018-1.345.91-3.383-1.108-2.039-3.469-.93-3.469-.93-.598.394-1.903.896-3.334.896-2.422 0-5.363-1.216-6.648-4.923l18.528-.007c.184-.99.173-2.009.173-2.009m-18.51-2.525c1.238-3.144 4.133-4.414 6.457-4.414 2.325 0 5.125 1.333 6.365 4.416l-12.822-.002Z" fill="#fff" fill-rule="evenodd" data-name="Caminho 4"/><path d="M73.59 14.299c-6.317 0-12.19 4.93-12.19 12.098 0 7.122 6.753 11.812 11.702 11.641 0 0 2.43 0 2.499-2.465.069-2.465-2.499-2.465-2.499-2.465-2.907 0-6.27-2.917-6.27-7.001 0-3.808 3.131-6.877 6.885-6.877 3.755 0 6.886 3.079 6.886 6.877l.017 9.466s.125 2.464 2.477 2.464 2.499-2.464 2.499-2.464V26.35c0-7.258-5.69-12.052-12.007-12.052" fill="#fff" fill-rule="evenodd" data-name="Caminho 5"/><path d="M100.054 14.299c-6.01 0-12.143 4.594-12.143 11.87 0 7.275 6.174 11.87 12.097 11.87 3.97 0 6.886-1.431 6.886-3.699 0 .916-.019 1.497-.019 2.14 0 4.03-3.996 6.489-6.73 6.489-4.157 0-5.752-2.776-6.18-3.588 0 0-1.253-2.063-3.392-1.096-2.14.967-1.242 3.335-1.242 3.335 1.682 3.21 5.572 6.28 10.677 6.28 5.106 0 12.098-3.607 12.098-12.236v-9.313c0-7.304-6.041-12.052-12.052-12.052m-.046 18.809c-3.802 0-6.885-3.2-6.885-6.998a6.881 6.881 0 0 1 6.885-6.877 6.881 6.881 0 0 1 6.886 6.877c0 3.798-3.083 6.998-6.886 6.998" fill="#fff" fill-rule="evenodd" data-name="Caminho 6"/><path d="M147.345 20.087h8.08v2.085h-5.821v2.954h5.386v2.085h-5.386v5.039h-2.26V20.087Z" fill="#fff" fill-rule="evenodd" data-name="Caminho 7"/><path d="M156.85 20.087h2.258V32.25h-2.259V20.087z" fill="#fff" fill-rule="evenodd" data-name="Retângulo 2"/><path d="M161.054 20.087h5.647c2.085 0 3.475 1.39 3.475 3.388 0 .921-.313 1.564-.608 1.981a3.486 3.486 0 0 1-.608.625v.087c.26.157.486.365.695.626.347.434.695 1.095.695 2.068 0 1.998-1.39 3.388-3.475 3.388h-5.821V20.087Zm5.386 5.039c.887 0 1.477-.59 1.477-1.477 0-.973-.59-1.564-1.477-1.564h-3.127v3.04h3.127Zm.174 5.126c.782 0 1.477-.678 1.477-1.564s-.695-1.564-1.477-1.564h-3.301v3.128h3.301Z" fill="#fff" fill-rule="evenodd" data-name="Caminho 8"/><path d="M171.862 20.087h5.56c2.155 0 3.822 1.65 3.822 4.083 0 2.346-1.65 3.823-3.561 3.91l3.909 4.17h-2.867l-3.91-4.17h-.694v4.17h-2.26V20.087Zm5.473 5.908c.869 0 1.65-.782 1.65-1.825 0-1.13-.781-1.911-1.65-1.911h-3.214v3.736h3.214Z" fill="#fff" fill-rule="evenodd" data-name="Caminho 9"/><path d="M185.797 20.087h3.301l4.344 12.163h-2.52l-.92-2.606h-5.109l-.92 2.606h-2.52l4.344-12.163Zm3.475 7.471-1.65-4.865h-.348l-1.65 4.865h3.648Z" fill="#fff" fill-rule="evenodd" data-name="Caminho 10"/></g></g><defs><clipPath id="a"><path d="M0 0h193.442v51.676H0V0z" data-name="Retângulo 3"/></clipPath></defs></svg>