<svg xmlns="http://www.w3.org/2000/svg" width="17.67" height="15.588" viewBox="1148 462.206 17.67 15.588"><g data-name="telefone-fixo"><path d="M1164.273 463.912h-8.225v11.361a1.67 1.67 0 0 1-1.67 1.67h-3.857a1.67 1.67 0 0 1-1.67-1.67v-11.248c-.5.213-.851.71-.851 1.287v11.082a1.4 1.4 0 0 0 1.4 1.4h14.873a1.4 1.4 0 0 0 1.397-1.4v-11.082a1.4 1.4 0 0 0-1.397-1.4Zm-6.532 11.952a.726.726 0 0 1-.727-.729.728.728 0 1 1 .726.729Zm0-2.57a.726.726 0 0 1-.727-.73c0-.4.323-.725.727-.725.4 0 .728.326.728.726a.73.73 0 0 1-.728.729Zm0-2.57a.726.726 0 0 1-.727-.73c0-.4.323-.726.727-.726.4 0 .728.326.728.726a.73.73 0 0 1-.728.73Zm2.76 5.14a.726.726 0 0 1-.726-.729.728.728 0 1 1 .726.729Zm0-2.57a.726.726 0 0 1-.726-.73c0-.4.323-.725.727-.725.4 0 .728.326.728.726a.73.73 0 0 1-.728.729Zm0-2.57a.726.726 0 0 1-.726-.73c0-.4.323-.726.727-.726.4 0 .728.326.728.726a.73.73 0 0 1-.728.73Zm2.761 5.14a.726.726 0 0 1-.726-.729.728.728 0 1 1 .726.729Zm0-2.57a.726.726 0 0 1-.726-.73c0-.4.323-.725.726-.725.4 0 .73.326.73.726a.73.73 0 0 1-.73.729Zm0-2.57a.726.726 0 0 1-.726-.73c0-.4.323-.726.726-.726.4 0 .73.326.73.726a.73.73 0 0 1-.73.73Zm.73-2.571h-6.978v-2.562h6.977v2.562Z" fill="#ff7a00" fill-rule="evenodd" data-name="Caminho 4"/><path d="M1150.52 462.206a1.12 1.12 0 0 0-1.117 1.118v11.95a1.12 1.12 0 0 0 1.118 1.118h3.857a1.12 1.12 0 0 0 1.118-1.119v-11.949a1.12 1.12 0 0 0-1.118-1.118h-3.857Z" fill="#ff7a00" fill-rule="evenodd" data-name="Caminho 5"/></g></svg>